<?xml version="1.0" encoding="UTF-8" standalone="no"?>
<!DOCTYPE svg PUBLIC "-//W3C//DTD SVG 1.1//EN"
 "http://www.w3.org/Graphics/SVG/1.1/DTD/svg11.dtd">
<!-- Generated by graphviz version 2.26.3 (20100126.1600)
 -->
<!-- Title: G Pages: 1 -->
<svg width="372pt" height="480pt"
 viewBox="0.00 0.00 372.00 480.00" xmlns="http://www.w3.org/2000/svg" xmlns:xlink="http://www.w3.org/1999/xlink">
<g id="graph1" class="graph" transform="scale(1 1) rotate(0) translate(4 476)">
<title>G</title>
<polygon fill="white" stroke="white" points="-4,5 -4,-476 369,-476 369,5 -4,5"/>
<g id="graph2" class="cluster"><title>cluster_Global</title>
<polyline fill="none" stroke="gray" points="64,-98 344,-98 "/>
<path fill="none" stroke="gray" d="M344,-98C350,-98 356,-104 356,-110"/>
<polyline fill="none" stroke="gray" points="356,-110 356,-452 "/>
<path fill="none" stroke="gray" d="M356,-452C356,-458 350,-464 344,-464"/>
<polyline fill="none" stroke="gray" points="344,-464 64,-464 "/>
<path fill="none" stroke="gray" d="M64,-464C58,-464 52,-458 52,-452"/>
<polyline fill="none" stroke="gray" points="52,-452 52,-110 "/>
<path fill="none" stroke="gray" d="M52,-110C52,-104 58,-98 64,-98"/>
<text text-anchor="middle" x="204" y="-450.1" font-family="Times Roman,serif" font-size="11.00" fill="gray">Global</text>
</g>
<g id="graph3" class="cluster"><title>cluster_\Malenki</title>
<polyline fill="none" stroke="gray" points="72,-106 336,-106 "/>
<path fill="none" stroke="gray" d="M336,-106C342,-106 348,-112 348,-118"/>
<polyline fill="none" stroke="gray" points="348,-118 348,-422 "/>
<path fill="none" stroke="gray" d="M348,-422C348,-428 342,-434 336,-434"/>
<polyline fill="none" stroke="gray" points="336,-434 72,-434 "/>
<path fill="none" stroke="gray" d="M72,-434C66,-434 60,-428 60,-422"/>
<polyline fill="none" stroke="gray" points="60,-422 60,-118 "/>
<path fill="none" stroke="gray" d="M60,-118C60,-112 66,-106 72,-106"/>
<text text-anchor="middle" x="204" y="-420.1" font-family="Times Roman,serif" font-size="11.00" fill="gray">Malenki</text>
</g>
<g id="graph4" class="cluster"><title>cluster_\Malenki\Bah</title>
<polyline fill="none" stroke="gray" points="80,-114 328,-114 "/>
<path fill="none" stroke="gray" d="M328,-114C334,-114 340,-120 340,-126"/>
<polyline fill="none" stroke="gray" points="340,-126 340,-392 "/>
<path fill="none" stroke="gray" d="M340,-392C340,-398 334,-404 328,-404"/>
<polyline fill="none" stroke="gray" points="328,-404 80,-404 "/>
<path fill="none" stroke="gray" d="M80,-404C74,-404 68,-398 68,-392"/>
<polyline fill="none" stroke="gray" points="68,-392 68,-126 "/>
<path fill="none" stroke="gray" d="M68,-126C68,-120 74,-114 80,-114"/>
<text text-anchor="middle" x="204" y="-390.1" font-family="Times Roman,serif" font-size="11.00" fill="gray">Bah</text>
</g>
<!-- \\Malenki\\Bah\\S -->
<g id="node4" class="node"><title>\\Malenki\\Bah\\S</title>
<polygon fill="none" stroke="black" points="332,-212 278,-212 278,-176 332,-176 332,-212"/>
<text text-anchor="middle" x="305" y="-191.1" font-family="Times Roman,serif" font-size="11.00">S</text>
</g>
<!-- \\Malenki\\Bah\\O -->
<g id="node5" class="node"><title>\\Malenki\\Bah\\O</title>
<polygon fill="none" stroke="black" points="130,-266 76,-266 76,-230 130,-230 130,-266"/>
<text text-anchor="middle" x="103" y="-245.1" font-family="Times Roman,serif" font-size="11.00">O</text>
</g>
<!-- \\Malenki\\Bah\\S&#45;&gt;\\Malenki\\Bah\\O -->
<g id="edge5" class="edge"><title>\\Malenki\\Bah\\S&#45;&gt;\\Malenki\\Bah\\O</title>
<path fill="none" stroke="black" d="M277.909,-203.584C258.137,-210.376 230.603,-219.415 206,-226 184.34,-231.798 159.798,-237.089 140.104,-241.029"/>
<polygon fill="none" stroke="black" points="139.424,-237.595 130.289,-242.961 140.776,-244.463 139.424,-237.595"/>
</g>
<!-- \\Countable -->
<g id="node12" class="node"><title>\\Countable</title>
<ellipse fill="none" stroke="black" cx="103" cy="-72" rx="65.0538" ry="18.3848"/>
<text text-anchor="middle" x="103" y="-68.4" font-family="Times Roman,serif" font-size="14.00" fill="gray">\Countable</text>
</g>
<!-- \\Malenki\\Bah\\S&#45;&gt;\\Countable -->
<g id="edge7" class="edge"><title>\\Malenki\\Bah\\S&#45;&gt;\\Countable</title>
<path fill="none" stroke="black" stroke-dasharray="1,5" d="M285.425,-175.961C261.676,-154.334 222.74,-119.775 206,-110 191.211,-101.364 174.115,-94.1091 158.153,-88.3296"/>
<polygon fill="none" stroke="black" points="158.987,-84.9135 148.392,-84.9225 156.68,-91.5225 158.987,-84.9135"/>
</g>
<!-- \\IteratorAggregate -->
<g id="node14" class="node"><title>\\IteratorAggregate</title>
<ellipse fill="none" stroke="black" cx="103" cy="-18" rx="102.03" ry="18.3848"/>
<text text-anchor="middle" x="103" y="-14.4" font-family="Times Roman,serif" font-size="14.00" fill="gray">\IteratorAggregate</text>
</g>
<!-- \\Malenki\\Bah\\S&#45;&gt;\\IteratorAggregate -->
<g id="edge9" class="edge"><title>\\Malenki\\Bah\\S&#45;&gt;\\IteratorAggregate</title>
<path fill="none" stroke="black" stroke-dasharray="1,5" d="M285.756,-175.984C283.029,-173.087 280.355,-170.039 278,-167 239.434,-117.234 256.236,-82.9526 206,-45 200.45,-40.8073 194.307,-37.2638 187.865,-34.2692"/>
<polygon fill="none" stroke="black" points="188.823,-30.8769 178.246,-30.2629 186.131,-37.3388 188.823,-30.8769"/>
</g>
<!-- \\Malenki\\Bah\\C -->
<g id="node6" class="node"><title>\\Malenki\\Bah\\C</title>
<polygon fill="none" stroke="black" points="332,-374 278,-374 278,-338 332,-338 332,-374"/>
<text text-anchor="middle" x="305" y="-353.1" font-family="Times Roman,serif" font-size="11.00">C</text>
</g>
<!-- \\Malenki\\Bah\\C&#45;&gt;\\Malenki\\Bah\\O -->
<g id="edge11" class="edge"><title>\\Malenki\\Bah\\C&#45;&gt;\\Malenki\\Bah\\O</title>
<path fill="none" stroke="black" d="M277.757,-341.435C241.89,-322.258 178.738,-288.493 138.975,-267.234"/>
<polygon fill="none" stroke="black" points="140.602,-264.135 130.133,-262.507 137.301,-270.308 140.602,-264.135"/>
</g>
<!-- \\Malenki\\Bah\\N -->
<g id="node7" class="node"><title>\\Malenki\\Bah\\N</title>
<polygon fill="none" stroke="black" points="332,-320 278,-320 278,-284 332,-284 332,-320"/>
<text text-anchor="middle" x="305" y="-299.1" font-family="Times Roman,serif" font-size="11.00">N</text>
</g>
<!-- \\Malenki\\Bah\\N&#45;&gt;\\Malenki\\Bah\\O -->
<g id="edge13" class="edge"><title>\\Malenki\\Bah\\N&#45;&gt;\\Malenki\\Bah\\O</title>
<path fill="none" stroke="black" d="M277.757,-294.717C242.192,-285.21 179.799,-268.53 139.984,-257.887"/>
<polygon fill="none" stroke="black" points="140.698,-254.455 130.133,-255.253 138.89,-261.217 140.698,-254.455"/>
</g>
<!-- \\Malenki\\Bah\\H -->
<g id="node8" class="node"><title>\\Malenki\\Bah\\H</title>
<polygon fill="none" stroke="black" points="332,-158 278,-158 278,-122 332,-122 332,-158"/>
<text text-anchor="middle" x="305" y="-137.1" font-family="Times Roman,serif" font-size="11.00">H</text>
</g>
<!-- \\Malenki\\Bah\\H&#45;&gt;\\Malenki\\Bah\\O -->
<g id="edge15" class="edge"><title>\\Malenki\\Bah\\H&#45;&gt;\\Malenki\\Bah\\O</title>
<path fill="none" stroke="black" d="M286.49,-158.096C263.09,-180.605 223.723,-217.156 206,-226 185.519,-236.22 160.44,-241.705 140.157,-244.643"/>
<polygon fill="none" stroke="black" points="139.502,-241.198 130.037,-245.958 140.404,-248.14 139.502,-241.198"/>
</g>
<!-- \\Malenki\\Bah\\H&#45;&gt;\\Countable -->
<g id="edge17" class="edge"><title>\\Malenki\\Bah\\H&#45;&gt;\\Countable</title>
<path fill="none" stroke="black" stroke-dasharray="1,5" d="M277.757,-130.829C246.187,-120.202 193.477,-102.458 154.186,-89.2308"/>
<polygon fill="none" stroke="black" points="155.1,-85.8458 144.506,-85.9725 152.867,-92.48 155.1,-85.8458"/>
</g>
<!-- \\Malenki\\Bah\\H&#45;&gt;\\IteratorAggregate -->
<g id="edge19" class="edge"><title>\\Malenki\\Bah\\H&#45;&gt;\\IteratorAggregate</title>
<path fill="none" stroke="black" stroke-dasharray="1,5" d="M290.951,-121.74C273.395,-100.189 241.331,-64.7892 206,-45 198.697,-40.9094 190.755,-37.4211 182.628,-34.4501"/>
<polygon fill="none" stroke="black" points="183.625,-31.0925 173.031,-31.1949 181.377,-37.7216 183.625,-31.0925"/>
</g>
<!-- \\Malenki\\Bah\\A -->
<g id="node9" class="node"><title>\\Malenki\\Bah\\A</title>
<polygon fill="none" stroke="black" points="332,-266 278,-266 278,-230 332,-230 332,-266"/>
<text text-anchor="middle" x="305" y="-245.1" font-family="Times Roman,serif" font-size="11.00">A</text>
</g>
<!-- \\Malenki\\Bah\\A&#45;&gt;\\Malenki\\Bah\\O -->
<g id="edge21" class="edge"><title>\\Malenki\\Bah\\A&#45;&gt;\\Malenki\\Bah\\O</title>
<path fill="none" stroke="black" d="M277.757,-248C242.268,-248 180.064,-248 140.238,-248"/>
<polygon fill="none" stroke="black" points="140.133,-244.5 130.133,-248 140.133,-251.5 140.133,-244.5"/>
</g>
<!-- \\Malenki\\Bah\\A&#45;&gt;\\Countable -->
<g id="edge23" class="edge"><title>\\Malenki\\Bah\\A&#45;&gt;\\Countable</title>
<path fill="none" stroke="black" stroke-dasharray="1,5" d="M285.871,-229.893C283.128,-227.009 280.419,-223.989 278,-221 241.006,-175.292 251.93,-146.718 206,-110 193.482,-99.9928 178.076,-92.4599 163.029,-86.8555"/>
<polygon fill="none" stroke="black" points="163.822,-83.4256 153.227,-83.4445 161.521,-90.0367 163.822,-83.4256"/>
</g>
<!-- \\Malenki\\Bah\\A&#45;&gt;\\IteratorAggregate -->
<g id="edge25" class="edge"><title>\\Malenki\\Bah\\A&#45;&gt;\\IteratorAggregate</title>
<path fill="none" stroke="black" stroke-dasharray="1,5" d="M285.075,-229.971C282.504,-227.122 280.056,-224.091 278,-221 231.2,-150.626 269.571,-100.691 206,-45 201.164,-40.7631 195.74,-37.1792 189.978,-34.1489"/>
<polygon fill="none" stroke="black" points="191.225,-30.8688 180.682,-29.8285 188.275,-37.2169 191.225,-30.8688"/>
</g>
</g>
</svg>
