<?xml version="1.0" encoding="UTF-8" standalone="no"?>
<!DOCTYPE svg PUBLIC "-//W3C//DTD SVG 1.1//EN"
 "http://www.w3.org/Graphics/SVG/1.1/DTD/svg11.dtd">
<!-- Generated by graphviz version 2.26.3 (20100126.1600)
 -->
<!-- Title: G Pages: 1 -->
<svg width="294pt" height="388pt"
 viewBox="0.00 0.00 294.00 388.00" xmlns="http://www.w3.org/2000/svg" xmlns:xlink="http://www.w3.org/1999/xlink">
<g id="graph1" class="graph" transform="scale(1 1) rotate(0) translate(4 384)">
<title>G</title>
<polygon fill="white" stroke="white" points="-4,5 -4,-384 291,-384 291,5 -4,5"/>
<g id="graph2" class="cluster"><title>cluster_Malenki</title>
<polyline fill="none" stroke="gray" points="37,-98 266,-98 "/>
<path fill="none" stroke="gray" d="M266,-98C272,-98 278,-104 278,-110"/>
<polyline fill="none" stroke="gray" points="278,-110 278,-360 "/>
<path fill="none" stroke="gray" d="M278,-360C278,-366 272,-372 266,-372"/>
<polyline fill="none" stroke="gray" points="266,-372 37,-372 "/>
<path fill="none" stroke="gray" d="M37,-372C31,-372 25,-366 25,-360"/>
<polyline fill="none" stroke="gray" points="25,-360 25,-110 "/>
<path fill="none" stroke="gray" d="M25,-110C25,-104 31,-98 37,-98"/>
<text text-anchor="middle" x="151.5" y="-358.1" font-family="Times Roman,serif" font-size="11.00" fill="gray">Malenki</text>
</g>
<g id="graph3" class="cluster"><title>cluster_Malenki\Bah</title>
<polyline fill="none" stroke="gray" points="45,-106 258,-106 "/>
<path fill="none" stroke="gray" d="M258,-106C264,-106 270,-112 270,-118"/>
<polyline fill="none" stroke="gray" points="270,-118 270,-330 "/>
<path fill="none" stroke="gray" d="M270,-330C270,-336 264,-342 258,-342"/>
<polyline fill="none" stroke="gray" points="258,-342 45,-342 "/>
<path fill="none" stroke="gray" d="M45,-342C39,-342 33,-336 33,-330"/>
<polyline fill="none" stroke="gray" points="33,-330 33,-118 "/>
<path fill="none" stroke="gray" d="M33,-118C33,-112 39,-106 45,-106"/>
<text text-anchor="middle" x="151.5" y="-328.1" font-family="Times Roman,serif" font-size="11.00" fill="gray">Bah</text>
</g>
<!-- \\Malenki\\Bah\\C -->
<g id="node3" class="node"><title>\\Malenki\\Bah\\C</title>
<a xlink:href="src.Malenki.Bah.C.html" xlink:title="C" target="_parent">
<polygon fill="none" stroke="black" points="262,-312 208,-312 208,-276 262,-276 262,-312"/>
<text text-anchor="middle" x="235" y="-291.1" font-family="Courier,monospace" font-size="11.00">C</text>
</a>
</g>
<!-- \\Malenki\\Bah\\O -->
<g id="node5" class="node"><title>\\Malenki\\Bah\\O</title>
<a xlink:href="src.Malenki.Bah.O.html" xlink:title="O" target="_parent">
<polygon fill="none" stroke="black" points="95,-285 41,-285 41,-249 95,-249 95,-285"/>
<text text-anchor="middle" x="68" y="-264.1" font-family="Courier,monospace" font-size="11.00">O</text>
</a>
</g>
<!-- \\Malenki\\Bah\\C&#45;&gt;\\Malenki\\Bah\\O -->
<g id="edge4" class="edge"><title>\\Malenki\\Bah\\C&#45;&gt;\\Malenki\\Bah\\O</title>
<path fill="none" stroke="black" d="M207.797,-289.602C179.896,-285.091 136.299,-278.042 105.213,-273.016"/>
<polygon fill="none" stroke="black" points="105.622,-269.537 95.1915,-271.396 104.505,-276.447 105.622,-269.537"/>
</g>
<!-- \\Malenki\\Bah\\A -->
<g id="node4" class="node"><title>\\Malenki\\Bah\\A</title>
<a xlink:href="src.Malenki.Bah.A.html" xlink:title="A" target="_parent">
<polygon fill="none" stroke="black" points="262,-150 208,-150 208,-114 262,-114 262,-150"/>
<text text-anchor="middle" x="235" y="-129.1" font-family="Courier,monospace" font-size="11.00">A</text>
</a>
</g>
<!-- \\Iterator -->
<g id="node11" class="node"><title>\\Iterator</title>
<ellipse fill="none" stroke="black" cx="68" cy="-18" rx="55.8614" ry="18.3848"/>
<text text-anchor="middle" x="68" y="-14.4" font-family="Times Roman,serif" font-size="14.00" fill="gray">\\Iterator</text>
</g>
<!-- \\Malenki\\Bah\\A&#45;&gt;\\Iterator -->
<g id="edge8" class="edge"><title>\\Malenki\\Bah\\A&#45;&gt;\\Iterator</title>
<path fill="none" stroke="black" stroke-dasharray="1,5" d="M218.231,-113.961C199.631,-94.7901 168.001,-64.5969 136,-45 130.032,-41.3454 123.483,-38.0132 116.88,-35.0341"/>
<polygon fill="none" stroke="black" points="117.8,-31.6219 107.229,-30.9254 115.059,-38.0626 117.8,-31.6219"/>
</g>
<!-- \\Countable -->
<g id="node13" class="node"><title>\\Countable</title>
<ellipse fill="none" stroke="black" cx="68" cy="-72" rx="67.8823" ry="18.3848"/>
<text text-anchor="middle" x="68" y="-68.4" font-family="Times Roman,serif" font-size="14.00" fill="gray">\\Countable</text>
</g>
<!-- \\Malenki\\Bah\\A&#45;&gt;\\Countable -->
<g id="edge10" class="edge"><title>\\Malenki\\Bah\\A&#45;&gt;\\Countable</title>
<path fill="none" stroke="black" stroke-dasharray="1,5" d="M207.797,-122.226C183.633,-113.545 147.695,-100.633 118.308,-90.0749"/>
<polygon fill="none" stroke="black" points="119.215,-86.6815 108.62,-86.594 116.848,-93.2692 119.215,-86.6815"/>
</g>
<!-- \\Malenki\\Bah\\N -->
<g id="node6" class="node"><title>\\Malenki\\Bah\\N</title>
<a xlink:href="src.Malenki.Bah.N.html" xlink:title="N" target="_parent">
<polygon fill="none" stroke="black" points="262,-204 208,-204 208,-168 262,-168 262,-204"/>
<text text-anchor="middle" x="235" y="-183.1" font-family="Courier,monospace" font-size="11.00">N</text>
</a>
</g>
<!-- \\Malenki\\Bah\\S -->
<g id="node7" class="node"><title>\\Malenki\\Bah\\S</title>
<a xlink:href="src.Malenki.Bah.S.html" xlink:title="S" target="_parent">
<polygon fill="none" stroke="black" points="262,-258 208,-258 208,-222 262,-222 262,-258"/>
<text text-anchor="middle" x="235" y="-237.1" font-family="Courier,monospace" font-size="11.00">S</text>
</a>
</g>
<!-- \\Malenki\\Bah\\S&#45;&gt;\\Malenki\\Bah\\O -->
<g id="edge6" class="edge"><title>\\Malenki\\Bah\\S&#45;&gt;\\Malenki\\Bah\\O</title>
<path fill="none" stroke="black" d="M207.797,-244.398C179.896,-248.909 136.299,-255.958 105.213,-260.984"/>
<polygon fill="none" stroke="black" points="104.505,-257.553 95.1915,-262.604 105.622,-264.463 104.505,-257.553"/>
</g>
<!-- \\Malenki\\Bah\\S&#45;&gt;\\Countable -->
<g id="edge12" class="edge"><title>\\Malenki\\Bah\\S&#45;&gt;\\Countable</title>
<path fill="none" stroke="black" stroke-dasharray="1,5" d="M215.871,-221.893C213.128,-219.009 210.419,-215.989 208,-213 171.006,-167.292 180.768,-140.126 136,-102 131.1,-97.8274 125.529,-94.142 119.733,-90.9122"/>
<polygon fill="none" stroke="black" points="121.004,-87.6317 110.506,-86.2075 117.825,-93.8679 121.004,-87.6317"/>
</g>
</g>
</svg>
